<svg width="153" height="46" viewBox="0 0 153 46" fill="none" xmlns="http://www.w3.org/2000/svg">
<rect width="152.304" height="45.0908" fill="black"/>
<path d="M142.304 33.5908H135.485L134.885 29.1367H126.88L121.946 39.0908H115.128L129.85 10.3184H138.485L142.304 33.5908ZM82.0908 24.6816C81.9772 25.4013 82.0344 26.0419 82.2617 26.6025C82.489 27.1629 82.8559 27.6059 83.3633 27.9316C83.8708 28.2498 84.4845 28.4091 85.2041 28.4092C85.9314 28.4092 86.6022 28.2498 87.2158 27.9316C87.837 27.6059 88.3527 27.1631 88.7617 26.6025C89.1707 26.042 89.4313 25.4013 89.5449 24.6816L91.9316 10.3184H98.25L95.7725 25.2275C95.4846 27.0002 94.8106 28.5346 93.75 29.8301C92.6971 31.1178 91.3561 32.1138 89.7275 32.8184C88.0988 33.5153 86.2873 33.8643 84.2949 33.8643C82.2875 33.8642 80.5904 33.5153 79.2041 32.8184C77.818 32.1139 76.8104 31.1178 76.1816 29.8301C75.5604 28.5346 75.3938 27.0002 75.6816 25.2275L78.1592 10.3184H84.4775L82.0908 24.6816ZM22.707 10C24.5857 10 26.1578 10.3146 27.4229 10.9434C28.6954 11.5721 29.6081 12.4546 30.1611 13.5908C30.7217 14.7271 30.8738 16.0606 30.6162 17.5908H24.5703C24.6385 16.8409 24.4572 16.2533 24.0254 15.8291C23.5936 15.3973 22.8655 15.1816 21.8428 15.1816C21.1915 15.1817 20.6463 15.2577 20.207 15.4092C19.7752 15.5607 19.4377 15.769 19.1953 16.0342C18.9606 16.2992 18.8126 16.6058 18.752 16.9541C18.6838 17.2267 18.688 17.4769 18.7637 17.7041C18.847 17.9238 19.0023 18.1248 19.2295 18.3066C19.4643 18.4885 19.7716 18.652 20.1504 18.7959C20.5366 18.9398 20.9953 19.0681 21.5254 19.1816L23.3428 19.5908C24.5851 19.8635 25.6269 20.224 26.4678 20.6709C27.3161 21.1102 27.983 21.6324 28.4678 22.2383C28.9526 22.8443 29.2713 23.5225 29.4229 24.2725C29.5819 25.0225 29.5851 25.8412 29.4336 26.7275C29.176 28.2575 28.5819 29.5528 27.6504 30.6133C26.7186 31.6739 25.502 32.4811 24.002 33.0342C22.5021 33.5871 20.7674 33.8633 18.7979 33.8633C16.7827 33.8633 15.0702 33.5643 13.6611 32.9658C12.2598 32.3598 11.245 31.4356 10.6162 30.1934C9.99501 28.9434 9.84298 27.3485 10.1611 25.4092H16.1611C16.0703 26.1211 16.1464 26.7193 16.3887 27.2041C16.631 27.6888 17.0209 28.0566 17.5586 28.3066C18.0965 28.5566 18.7673 28.6816 19.5703 28.6816C20.2521 28.6816 20.8355 28.5983 21.3203 28.4316C21.8052 28.265 22.1875 28.0337 22.4678 27.7383C22.748 27.4429 22.9188 27.1062 22.9795 26.7275C23.0401 26.3792 22.9795 26.0685 22.7979 25.7959C22.616 25.5232 22.2859 25.2763 21.8086 25.0566C21.3314 24.837 20.6758 24.6359 19.8428 24.4541L17.6162 23.9541C15.6389 23.4996 14.1462 22.7496 13.1387 21.7041C12.1313 20.6587 11.7749 19.2272 12.0703 17.4092C12.3127 15.9243 12.9231 14.6285 13.9004 13.5225C14.8852 12.409 16.1354 11.5452 17.6504 10.9316C19.173 10.3105 20.8587 10 22.707 10ZM53.0225 33.5908H46.2041L45.6035 29.1367H37.9297L35.8408 33.5908H29.0225L40.5674 10.3184H49.2041L53.0225 33.5908ZM74.918 15.4092H67.918L64.918 33.5908H58.6904L61.6904 15.4092H54.6904L55.5537 10.3184H75.7812L74.918 15.4092ZM111.299 10.3184C113.026 10.3184 114.484 10.6329 115.674 11.2617C116.863 11.8905 117.719 12.7957 118.242 13.9775C118.765 15.1593 118.89 16.5761 118.617 18.2275C118.344 19.8941 117.742 21.2995 116.811 22.4434C115.948 23.5043 114.863 24.3266 113.558 24.9121L116.845 33.5908H109.98L107.169 25.9092H104.991L103.708 33.5908H97.3896L101.253 10.3184H111.299ZM40.1465 24.4092H44.9668L43.9316 16.7275H43.749L40.1465 24.4092ZM129.224 24.4092H134.248L133.213 16.7275H133.031L129.224 24.4092ZM105.812 21H108.026C108.769 21 109.42 20.9093 109.98 20.7275C110.541 20.5381 110.996 20.2423 111.345 19.8408C111.693 19.4318 111.92 18.894 112.026 18.2275C112.132 17.5609 112.079 17.0192 111.867 16.6025C111.655 16.1784 111.303 15.8679 110.811 15.6709C110.318 15.4664 109.708 15.3643 108.98 15.3643H106.753L105.812 21Z" fill="white"/>
</svg>
